<svg xmlns="http://www.w3.org/2000/svg" viewBox="0 0 1024 1024">
  <rect width="1024" height="1024" fill="#EDEAE2"/>
  <g stroke="#000000" stroke-width="2" opacity="0.09">
    <line x1="128" y1="0" x2="128" y2="1024"/>
    <line x1="256" y1="0" x2="256" y2="1024"/>
    <line x1="384" y1="0" x2="384" y2="1024"/>
    <line x1="512" y1="0" x2="512" y2="1024"/>
    <line x1="640" y1="0" x2="640" y2="1024"/>
    <line x1="768" y1="0" x2="768" y2="1024"/>
    <line x1="896" y1="0" x2="896" y2="1024"/>
    <line x1="0" y1="128" x2="1024" y2="128"/>
    <line x1="0" y1="256" x2="1024" y2="256"/>
    <line x1="0" y1="384" x2="1024" y2="384"/>
    <line x1="0" y1="512" x2="1024" y2="512"/>
    <line x1="0" y1="640" x2="1024" y2="640"/>
    <line x1="0" y1="768" x2="1024" y2="768"/>
    <line x1="0" y1="896" x2="1024" y2="896"/>
  </g>
  <polyline points="240,790 360,680 430,730 540,560 610,610 700,400" fill="none" stroke="#000000" stroke-width="42" stroke-linejoin="miter" stroke-linecap="round"/>
  <polygon points="743,299 757,415 650,370" fill="#000000"/>
  <circle cx="240" cy="790" r="24" fill="#000000"/>
  <circle cx="360" cy="680" r="24" fill="#000000"/>
  <circle cx="430" cy="730" r="24" fill="#000000"/>
  <circle cx="540" cy="560" r="24" fill="#000000"/>
  <circle cx="610" cy="610" r="24" fill="#000000"/>
</svg>
